<?xml version="1.0" encoding="utf-8"?>
<!-- Generator: Adobe Illustrator 27.1.0, SVG Export Plug-In . SVG Version: 6.00 Build 0)  -->
<!DOCTYPE svg PUBLIC "-//W3C//DTD SVG 1.1//EN" "http://www.w3.org/Graphics/SVG/1.1/DTD/svg11.dtd" [
	<!ENTITY ns_extend "http://ns.adobe.com/Extensibility/1.0/">
	<!ENTITY ns_ai "http://ns.adobe.com/AdobeIllustrator/10.0/">
	<!ENTITY ns_graphs "http://ns.adobe.com/Graphs/1.0/">
	<!ENTITY ns_vars "http://ns.adobe.com/Variables/1.0/">
	<!ENTITY ns_imrep "http://ns.adobe.com/ImageReplacement/1.0/">
	<!ENTITY ns_sfw "http://ns.adobe.com/SaveForWeb/1.0/">
	<!ENTITY ns_custom "http://ns.adobe.com/GenericCustomNamespace/1.0/">
	<!ENTITY ns_adobe_xpath "http://ns.adobe.com/XPath/1.0/">
]>
<svg version="1.1" id="Ebene_1" xmlns:x="&ns_extend;" xmlns:i="&ns_ai;" xmlns:graph="&ns_graphs;"
	 xmlns="http://www.w3.org/2000/svg" xmlns:xlink="http://www.w3.org/1999/xlink" x="0px" y="0px" viewBox="0 0 175.1 416.4"
	 style="enable-background:new 0 0 175.1 416.4;" xml:space="preserve">
<style type="text/css">
	.st0{fill:#FFFFFF;}
</style>
<metadata>
	<sfw  xmlns="&ns_sfw;">
		<slices></slices>
		<sliceSourceBounds  bottomLeftOrigin="true" height="416.4" width="175.1" x="145.1" y="-632"></sliceSourceBounds>
	</sfw>
</metadata>
<g>
	<path class="st0" d="M153,0h-45.9C97.3,0,88.9,4.5,86,13.4c-9,0.9-17.6,3.1-25.6,6.5c-15.9,6.7-29.4,17.9-38.9,32.1
		C12.5,65.3,7,81.3,6.5,98.5h0v158.9H0v159h30v-159h-6.5V98.6c0.3-8.9,2.3-17.3,5.5-25c5.4-12.8,14.5-23.8,25.9-31.5
		c9.5-6.4,20.5-10.6,32.5-11.8c3.7,7.1,11.1,10,19.7,10H153c12.2,0,22.2-8,22.2-20.2S165.1,0,153,0z"/>
</g>
</svg>
